<?xml version="1.0" encoding="UTF-8" standalone="no"?>
<!-- Created with Inkscape (http://www.inkscape.org/) -->

<svg
   xmlns:dc="http://purl.org/dc/elements/1.1/"
   xmlns:cc="http://creativecommons.org/ns#"
   xmlns:rdf="http://www.w3.org/1999/02/22-rdf-syntax-ns#"
   xmlns:svg="http://www.w3.org/2000/svg"
   xmlns="http://www.w3.org/2000/svg"
   xmlns:sodipodi="http://sodipodi.sourceforge.net/DTD/sodipodi-0.dtd"
   xmlns:inkscape="http://www.inkscape.org/namespaces/inkscape"
   width="128"
   height="128"
   id="svg2"
   version="1.1"
   inkscape:version="0.48.5 r10040"
   sodipodi:docname="testBg1.svg">
  <defs
     id="defs4" />
  <sodipodi:namedview
     id="base"
     pagecolor="#ffffff"
     bordercolor="#666666"
     borderopacity="1.0"
     inkscape:pageopacity="0.0"
     inkscape:pageshadow="2"
     inkscape:zoom="5.6"
     inkscape:cx="45.62604"
     inkscape:cy="57.300602"
     inkscape:document-units="px"
     inkscape:current-layer="layer1"
     showgrid="false"
     inkscape:window-width="1600"
     inkscape:window-height="1200"
     inkscape:window-x="152"
     inkscape:window-y="0"
     inkscape:window-maximized="1" />
  <metadata
     id="metadata7">
    <rdf:RDF>
      <cc:Work
         rdf:about="">
        <dc:format>image/svg+xml</dc:format>
        <dc:type
           rdf:resource="http://purl.org/dc/dcmitype/StillImage" />
        <dc:title></dc:title>
      </cc:Work>
    </rdf:RDF>
  </metadata>
  <g
     inkscape:label="Layer 1"
     inkscape:groupmode="layer"
     id="layer1"
     transform="translate(0,-924.36218)">
    <path
       sodipodi:type="arc"
       style="fill:#6f8a91"
       id="path2985"
       sodipodi:cx="68.303574"
       sodipodi:cy="64.964287"
       sodipodi:rx="45.089287"
       sodipodi:ry="48.57143"
       d="m 113.39286,64.964287 a 45.089287,48.57143 0 1 1 -90.178573,0 45.089287,48.57143 0 1 1 90.178573,0 z"
       transform="matrix(0.96339966,0,0,0.89433231,-1.5179172,930.33395)" />
    <path
       style="fill:none;stroke:#000000;stroke-width:1px;stroke-linecap:butt;stroke-linejoin:miter;stroke-opacity:1"
       d="m 39.107143,87.642857 c 0.404302,-1.61721 -0.06539,-0.259056 0.357143,-0.892857 0.07383,-0.110745 0.104741,-0.246398 0.178571,-0.357143 0.04669,-0.07004 0.140925,-0.103279 0.178572,-0.178571 0.02662,-0.05324 -0.02662,-0.125332 0,-0.178572 0.05687,-0.113745 0.752541,-0.752541 0.892857,-0.892857 0.09401,-0.09401 0.440342,-0.488028 0.535714,-0.535714 0.05434,-0.02717 0.455293,0 0.535714,0 0.714286,0 -0.297619,0.05952 0.178572,-0.178572 0.159719,-0.07986 0.375995,0.07986 0.535714,0 0.07529,-0.03765 0.10853,-0.131877 0.178572,-0.178571 0.314086,-0.209391 0.52986,-0.211944 0.892857,-0.357143 0.123579,-0.04943 0.246397,-0.104741 0.357143,-0.178571 0.330991,-0.220661 0.01638,-0.178572 0.357142,-0.178572 0.812908,0 0.01021,0.08418 0.535715,-0.178571 0.05324,-0.02662 0.125331,0.02662 0.178571,0 0.07529,-0.03765 0.103279,-0.140926 0.178572,-0.178572 0.05434,-0.02717 0.455293,0 0.535714,0 0.05952,0 0.119047,0 0.178571,0 0.05952,0 0.151952,-0.05324 0.178572,0 0.03795,0.0759 0,0.743215 0,0.892857 0,0.05952 -0.04209,0.136482 0,0.178572 0.04209,0.04209 0.136481,-0.04209 0.178571,0 0.08418,0.08418 -0.08418,0.272963 0,0.357143 0.04209,0.04209 0.136482,-0.04209 0.178572,0 0.04209,0.04209 -0.02662,0.125331 0,0.178571 0.03765,0.07529 0.119047,0.119048 0.178571,0.178572 0.05952,0.05952 0.103279,0.140925 0.178571,0.178571 0.05324,0.02662 0.125332,-0.02662 0.178572,0 C 47.781537,85.551483 46.206533,85.068844 47.5,85.5 c 0.05647,0.01882 0.125332,-0.02662 0.178572,0 0.184615,0.09231 0.172527,0.264835 0.357142,0.357143 0.05324,0.02662 0.125332,-0.02662 0.178572,0 0.07529,0.03765 0.103279,0.140925 0.178571,0.178571 1.03648,0.51824 0.206985,0.07711 0.714286,0.178572 0.240657,0.04813 0.473629,0.13044 0.714286,0.178571 0.05837,0.01167 0.120203,-0.01167 0.178571,0 0.240657,0.04813 0.481457,0.100962 0.714286,0.178571 0.126269,0.04209 0.225854,0.156691 0.357143,0.178572 0.293569,0.04893 0.595238,0 0.892857,0 0.654762,0 1.309524,0 1.964286,0 0.416666,0 0.833333,0 1.25,0 0.624112,0 1.189525,0.0599 1.785714,-0.178572 0.07816,-0.03126 0.103279,-0.140925 0.178571,-0.178571 0.168359,-0.08418 0.367356,-0.09439 0.535715,-0.178571 0.07529,-0.03765 0.100412,-0.147308 0.178571,-0.178572 0.227869,-0.09115 0.494773,-0.06882 0.714286,-0.178571 0.05324,-0.02662 -0.05324,-0.151952 0,-0.178572 0.219513,-0.109756 0.486416,-0.08742 0.714285,-0.178571 0.07816,-0.03126 0.09603,-0.162063 0.178572,-0.178572 0.233471,-0.04669 0.478583,0.03367 0.714286,0 0.650275,-0.0929 0.375634,-0.184735 0.892857,-0.357142 0.232828,-0.07761 0.481457,-0.100962 0.714285,-0.178572 0.126269,-0.04209 0.230874,-0.136482 0.357143,-0.178571 0.232829,-0.07761 0.486416,-0.08742 0.714286,-0.178572 0.07816,-0.03126 0.103279,-0.140925 0.178571,-0.178571 0.04426,-0.02213 0.646255,-0.01361 0.714286,0 0.238095,0.05952 0.476191,0.119048 0.714286,0.178571 0.05952,0.119048 0.05952,0.297619 0.178571,0.357143 0.271471,0.135735 0.60492,0.08259 0.892857,0.178572 0.07986,0.02662 0.10328,0.140925 0.178572,0.178571 0.286704,0.143352 0.606152,0.213791 0.892857,0.357143 0.07529,0.03765 0.100413,0.147308 0.178571,0.178571 0.22787,0.09115 0.486417,0.08742 0.714286,0.178572 0.07816,0.03126 0.103279,0.140925 0.178572,0.178571 0.168358,0.08418 0.367355,0.09439 0.535714,0.178572 0.07529,0.03765 0.10853,0.131877 0.178571,0.178571 0.110746,0.07383 0.246398,0.104741 0.357143,0.178571 0.140083,0.09339 0.206558,0.281851 0.357143,0.357143 0.05324,0.02662 0.136482,-0.04209 0.178571,0 0.0072,0.0072 0,0.648708 0,0.714286 0,0.05952 -0.05837,0.166898 0,0.178571 0.223215,0.04464 1.321429,-0.03571 1.607143,0 0.243528,0.03044 0.470758,0.148131 0.714286,0.178572 0.236257,0.02953 0.47619,0 0.714286,0 0.47619,0 0.952381,0 1.428571,0 0.05952,0 0.151952,0.05324 0.178572,0 0.02612,-0.05225 0,-0.925268 0,-1.071429 0,-0.05952 -0.02662,-0.125331 0,-0.178571 0.03765,-0.07529 0.131877,-0.10853 0.178571,-0.178572 0.07383,-0.110745 0.05952,-0.297619 0.178571,-0.357142 0.271471,-0.135736 0.60492,-0.08259 0.892858,-0.178572 0.238095,-0.119047 0.47619,-0.238095 0.714285,-0.357143 0.05952,-0.05952 0.103279,-0.140925 0.178572,-0.178571 0.286704,-0.143352 0.606152,-0.213791 0.892857,-0.357143 0.07529,-0.03765 0.103279,-0.140925 0.178571,-0.178571 0.286705,-0.143353 0.606153,-0.213791 0.892857,-0.357143 0.07529,-0.03765 0.124682,-0.113903 0.178572,-0.178572 0.243999,-0.292798 0.409375,-0.664174 0.714286,-0.892857 0.196338,-0.147254 0.503837,-0.0523 0.714285,-0.178571 0.114132,-0.06848 0.06444,-0.288664 0.178572,-0.357143 0.210448,-0.126269 0.494772,-0.06882 0.714285,-0.178572 0.05324,-0.02662 0,-0.119047 0,-0.178571 0.119048,-0.05952 0.230874,-0.136482 0.357143,-0.178571 0.112939,-0.03765 0.238096,0 0.357143,0 0.297619,0 0.595238,0 0.892857,0 0.119048,0 0.244205,0.03765 0.357143,0 0.07986,-0.02662 0.09691,-0.158155 0.178572,-0.178572 0.230986,-0.05775 0.47619,0 0.714285,0 0.05952,0 0.119048,0 0.178572,0 0.05952,0 0.136481,-0.04209 0.178571,0 0.04209,0.04209 -0.02662,0.125332 0,0.178572 0.03765,0.07529 0.151952,0.09871 0.178572,0.178571 0.03765,0.112939 -0.02335,0.240407 0,0.357143 0.03691,0.184575 0.132918,0.353103 0.178571,0.535714 0.01444,0.05775 -0.04209,0.136482 0,0.178572 0.09412,0.09412 0.246398,0.104741 0.357143,0.178571 0.140083,0.09339 0.21706,0.263754 0.357143,0.357143 0.110745,0.07383 0.263027,0.08446 0.357143,0.178571 0.09412,0.09412 0.104741,0.246398 0.178571,0.357143 0.04951,0.07426 0.650419,0.682352 0.714286,0.714286 0.05324,0.02662 0.136481,-0.04209 0.178571,0 0.04209,0.04209 -0.04209,0.136482 0,0.178571 0.04209,0.04209 0.119048,0 0.178572,0 0.238095,0 0.47619,0 0.714285,0 1.488096,0 2.976191,0 4.464286,0"
       id="path3082"
       inkscape:connector-curvature="0"
       transform="translate(0,924.36218)" />
    <path
       style="fill:none;stroke:#000000;stroke-width:1px;stroke-linecap:butt;stroke-linejoin:miter;stroke-opacity:1"
       d="m 43.571429,56.035714 c -1.589286,-2.119047 -0.142857,0.107143 -0.535715,-1.071428 -0.02662,-0.07986 -0.131877,-0.10853 -0.178571,-0.178572 -0.07383,-0.110745 -0.136482,-0.230874 -0.178571,-0.357143 -0.01882,-0.05647 0.01167,-0.120203 0,-0.178571 C 42.63044,54.009343 42.548131,53.776371 42.5,53.535714 c -0.04084,-0.204218 0,-0.689759 0,-0.892857 0,-0.595238 0.03495,-1.191503 0,-1.785714 -0.03861,-0.656328 -0.119048,-1.309524 -0.178571,-1.964286 0,-0.892857 0.03187,-1.786283 0,-2.678571 -0.0277,-0.775601 -0.101347,-1.549185 -0.178572,-2.321429 -0.05267,-0.52667 -0.297361,-1.548908 -0.178571,-2.142857 0.01167,-0.05837 0.119047,0 0.178571,0 0.178572,0 0.357143,0 0.535715,0 0.119047,0 0.238095,0 0.357142,0 0.178572,0 0.409446,-0.126269 0.535715,0 0.17354,0.17354 0.08742,0.486416 0.178571,0.714286 0.03126,0.07816 0.119048,0.119047 0.178572,0.178571 0.541061,0.541061 0.490029,0.262147 1.25,0.357143 0.243527,0.03044 0.470757,0.14813 0.714285,0.178571 0.236257,0.02953 0.476191,0 0.714286,0 0.595238,0 1.190476,0 1.785714,0 0.297619,0 0.595995,-0.0212 0.892857,0 0.537642,0.0384 1.081936,0.05737 1.607143,0.178572 1.392857,0.321428 0.196429,0.285714 1.071429,0.535714 0.291835,0.08338 0.621387,0.04284 0.892857,0.178571 0.119048,0.05952 0.08446,0.263028 0.178571,0.357143 0.210449,0.210449 0.503838,0.325266 0.714286,0.535715 0.269454,0.269453 0.178572,0.892775 0.178572,1.25 0,0.713038 0.09318,1.463487 -0.178572,2.142857 -0.272201,0.680503 -0.141693,-0.541536 -0.357143,0.535714 -0.03502,0.175104 0,0.357143 0,0.535714 0,0.119048 0.05324,0.250664 0,0.357143 -0.02662,0.05324 -0.170153,-0.05893 -0.178571,0 -0.03224,0.225695 0.02764,2.017432 0,2.321429 -0.02748,0.302266 -0.145054,0.5912 -0.178572,0.892857 -0.02629,0.236639 0.04669,0.480814 0,0.714286 -0.01651,0.08254 -0.119047,0.119047 -0.178571,0.178571 -0.05952,0.05952 -0.119048,0.119048 -0.178571,0.178571 -0.05952,0.05952 -0.10328,0.140926 -0.178572,0.178572 -0.339376,0.169688 -0.02812,-0.282065 -0.357143,0.178571 -0.249486,0.349281 -0.508747,0.694608 -0.714285,1.071429 -0.153494,0.281405 -0.148535,0.649481 -0.357143,0.892857 -0.17324,0.202113 -0.486023,0.220185 -0.714286,0.357143 -0.07218,0.04331 -0.10853,0.131877 -0.178571,0.178571 -0.110746,0.07383 -0.246398,0.104742 -0.357143,0.178572 -0.07004,0.04669 -0.103279,0.140925 -0.178572,0.178571 -0.06458,0.03229 -0.768653,0 -0.892857,0 -0.595238,0 -1.190476,0 -1.785714,0 -0.357143,0 -0.714286,0 -1.071429,0 -0.119047,0 -0.238095,0 -0.357143,0 -0.05952,0 -0.125331,0.02662 -0.178571,0 -0.07529,-0.03765 -0.103279,-0.140925 -0.178571,-0.178571 -0.05324,-0.02662 -0.136482,0.04209 -0.178572,0 -0.04209,-0.04209 0.02662,-0.125332 0,-0.178572 -0.03765,-0.07529 -0.140925,-0.103279 -0.178571,-0.178571 -0.02662,-0.05324 0.04209,-0.136482 0,-0.178572 -0.08418,-0.08418 -0.272964,0.08418 -0.357143,0 -0.04209,-0.04209 0.04209,-0.136481 0,-0.178571 -0.04209,-0.04209 -0.136482,0.04209 -0.178572,0 -0.04209,-0.04209 0,-0.119048 0,-0.178571 -0.238095,-0.05952 -0.47619,-0.119048 -0.714285,-0.178572 z"
       id="path3084"
       inkscape:connector-curvature="0"
       transform="translate(0,924.36218)" />
    <path
       style="fill:none;stroke:#000000;stroke-width:1px;stroke-linecap:butt;stroke-linejoin:miter;stroke-opacity:1"
       d="m 84.107143,56.571428 c -0.171937,-0.532397 -0.626659,0.1331 -0.892857,0 -0.863332,-0.431666 1.599103,-0.02333 -1.071429,-0.357142 -0.435374,-0.05442 -1.020408,0.0907 -1.428571,0 C 80.454426,56.156539 80.25986,55.914889 80,55.857143 c -0.290532,-0.06456 -0.597058,0.03287 -0.892857,0 -1.212908,-0.134768 -0.397731,-0.02706 -0.892857,-0.357143 -0.05108,-0.03405 -0.504219,-0.199668 -0.535714,-0.357143 -0.04669,-0.233472 0.03367,-0.478583 0,-0.714286 C 77.651952,54.242232 77.551711,54.073845 77.5,53.892857 77.43258,53.656877 77.36956,53.419228 77.321429,53.178571 76.964366,52.673 77.234489,51.942666 77.142857,51.392857 c -0.02188,-0.131288 -0.14629,-0.228018 -0.178571,-0.357143 -0.04331,-0.17324 0,-0.357143 0,-0.535714 0,-0.466115 0.04107,-0.976821 0,-1.428572 C 76.931506,48.710846 76.813484,48.361003 76.785714,48 c -0.03196,-0.41544 0.02772,-0.834256 0,-1.25 -0.358401,-5.376021 8.54e-4,3.229645 -0.357142,-3.214286 -0.02642,-0.475457 0,-0.952381 0,-1.428571 0,-0.238096 0,-0.476191 0,-0.714286 0,-0.05952 0,-0.119048 0,-0.178571 0,-0.05952 -0.04209,-0.136482 0,-0.178572 0.04209,-0.04209 0.119047,0 0.178571,0 0.503341,0 0.662086,-0.0522 1.071429,0.357143 0.450351,0.450351 0.581308,0.357143 1.25,0.357143 0.297619,0 0.595238,0 0.892857,0 0.892857,0 1.785714,0 2.678571,0 0.297619,0 0.596461,0.02694 0.892857,0 1.024322,-0.09312 2.011393,-0.442594 3.035715,-0.535714 0.592793,-0.05389 1.198575,0.09786 1.785714,0 0.08303,-0.01384 0.0969,-0.158155 0.178571,-0.178572 0.17324,-0.04331 0.357143,0 0.535715,0 0.05952,0 0.151951,-0.05324 0.178571,0 0.05324,0.10648 -0.03765,0.244204 0,0.357143 0.02662,0.07986 0.147308,0.100413 0.178571,0.178571 0.09115,0.22787 0.08742,0.486417 0.178572,0.714286 0.03126,0.07816 0.155445,0.09763 0.178571,0.178572 C 89.769465,42.907412 89.796186,43.774433 90,44.25 c 0.30564,0.713159 0.338892,0.30239 0.535714,0.892857 0.07761,0.232829 0.130441,0.473629 0.178572,0.714286 0.03971,0.198533 0,0.505589 0,0.714285 0,0.476191 0,0.952381 0,1.428572 0,0.595238 0,1.190476 0,1.785714 0,0.238095 0.03367,0.478584 0,0.714286 -0.0658,0.460636 -0.203892,0.509729 -0.357143,0.892857 -0.06991,0.174768 -0.07416,0.379097 -0.178571,0.535714 -0.03302,0.04953 -0.125332,-0.02662 -0.178572,0 -0.214286,0.107143 -0.321428,0.428572 -0.535714,0.535715 -0.05324,0.02662 -0.136482,-0.04209 -0.178572,0 -0.04209,0.04209 0.04209,0.136481 0,0.178571 -0.04209,0.04209 -0.119047,0 -0.178571,0 -0.05952,0.238095 -0.05938,0.499747 -0.178571,0.714286 -0.185098,0.333175 -0.543836,0.551956 -0.714286,0.892857 -0.135735,0.27147 -0.03117,0.627539 -0.178572,0.892857 -0.163524,0.294344 -0.535825,0.42875 -0.714285,0.714286 -0.130074,0.208118 -0.06882,0.494772 -0.178572,0.714285 -0.07529,0.150585 -0.238095,0.238096 -0.357143,0.357143 -0.05952,0.05952 -0.09871,0.151952 -0.178571,0.178572 -0.112938,0.03765 -0.238095,0 -0.357143,0 -0.05952,0 -0.119047,0 -0.178571,0 -0.05952,0 -0.136482,0.04209 -0.178572,0 -0.04209,-0.04209 0.04209,-0.136482 0,-0.178572 -0.04209,-0.04209 -0.125331,0.02662 -0.178571,0 C 85.538566,56.840712 85.17572,56.302145 85,56.214286 c -0.286704,-0.143353 -0.572311,0.357142 -0.892857,0.357142 -0.320545,0 -0.595238,-0.238095 -0.892857,-0.357142"
       id="path3086"
       inkscape:connector-curvature="0"
       transform="translate(0,924.36218)" />
    <path
       style="fill:none;stroke:#000000;stroke-width:1px;stroke-linecap:butt;stroke-linejoin:miter;stroke-opacity:1"
       d="m 70.535714,35.142857 c -0.04823,-0.74225 0.792053,-0.652365 1.071429,-1.071429 0.108749,-0.163122 0.152425,-0.433355 0.357143,-0.535714 0.05324,-0.02662 0.122102,0.01882 0.178571,0 1.293468,-0.431156 -0.281537,0.05148 0.535715,-0.357143 0.05324,-0.02662 0.125331,0.02662 0.178571,0 0.07529,-0.03765 0.103279,-0.140925 0.178571,-0.178571 0.05324,-0.02662 0.136482,0.04209 0.178572,0 0.04209,-0.04209 -0.04209,-0.136482 0,-0.178572 0.04209,-0.04209 0.119047,0 0.178571,0 0.357143,0 0.714286,0 1.071429,0 0.119047,0 0.244204,-0.03765 0.357143,0 0.159719,0.05324 0.206558,0.281851 0.357143,0.357143 0.05324,0.02662 0.125331,-0.02662 0.178571,0 0.07529,0.03765 0.103279,0.140925 0.178571,0.178572 0.05324,0.02662 0.119048,0 0.178572,0 0.119047,0 0.238095,0 0.357143,0 2.559524,0 5.119047,0 7.678571,0 0.238095,0 0.476191,0 0.714286,0 0.05952,-0.05952 0.09554,-0.164733 0.178571,-0.178572 0.29357,-0.04893 0.610511,0.09412 0.892857,0 0.12627,-0.04209 0.06444,-0.288664 0.178572,-0.357143 0.210448,-0.126269 0.486416,-0.08742 0.714286,-0.178571 0.251682,-0.100673 0.178571,-0.334817 0.178571,-0.535714"
       id="path3094"
       inkscape:connector-curvature="0"
       transform="translate(0,924.36218)" />
    <path
       style="fill:none;stroke:#000000;stroke-width:1px;stroke-linecap:butt;stroke-linejoin:miter;stroke-opacity:1"
       d="m 41.25,36.214286 c 0.712279,0.584702 0.550499,-0.478655 0.892857,-0.535715 0.29357,-0.04893 0.599288,0.04893 0.892857,0 0.08303,-0.01384 0.09871,-0.151951 0.178572,-0.178571 0.09051,-0.03017 1.104019,0 1.25,0 0.336354,0 1.13563,-0.03662 1.428571,0 0.243528,0.03044 0.474707,0.125332 0.714286,0.178571 2.450608,0.54458 -0.246688,-0.121502 1.428571,0.357143 0.23598,0.06742 0.473629,0.13044 0.714286,0.178572 0.05837,0.01167 0.122102,-0.01882 0.178572,0 1.293467,0.431155 -0.281538,-0.05148 0.535714,0.357142 0.05324,0.02662 0.136482,-0.04209 0.178571,0 0.179105,0.179105 -0.179104,0.178039 0,0.357143 0.04209,0.04209 0.119048,0 0.178572,0 0.238095,0 0.47619,0 0.714285,0 0.05952,0 0.119858,-0.0098 0.178572,0 0.297619,0.05952 0.595238,0.119048 0.892857,0.178572 0.238095,0 0.478583,-0.03367 0.714286,0 0.186339,0.02662 0.351138,0.141656 0.535714,0.178571 0.105444,0.02109 1.127626,0.02448 1.25,0 0.240657,-0.04813 0.473629,-0.13044 0.714286,-0.178571 0.05837,-0.01167 0.119857,0.0098 0.178571,0 0.299384,-0.0499 0.59085,-0.148371 0.892857,-0.178572 0.592284,-0.05923 1.194117,0.06573 1.785715,0 0.243921,-0.0271 0.470757,-0.14813 0.714285,-0.178571 0.317264,-0.03966 0.729691,0 1.071429,0 0.05952,0 0.119047,0 0.178571,0 0.05952,0 0.136482,-0.04209 0.178572,0 0.0081,0.0081 0,0.808661 0,0.892857"
       id="path3096"
       inkscape:connector-curvature="0"
       transform="translate(0,924.36218)" />
    <path
       sodipodi:type="arc"
       style="fill:#0055d4"
       id="path3098"
       sodipodi:cx="49.375"
       sodipodi:cy="53.267857"
       sodipodi:rx="3.3035715"
       sodipodi:ry="3.4821429"
       d="m 52.678571,53.267857 a 3.3035715,3.4821429 0 1 1 -6.607142,0 3.3035715,3.4821429 0 1 1 6.607142,0 z"
       transform="translate(-1.25,921.50504)" />
    <path
       sodipodi:type="arc"
       style="fill:#0055d4"
       id="path3098-2"
       sodipodi:cx="49.375"
       sodipodi:cy="53.267857"
       sodipodi:rx="3.3035715"
       sodipodi:ry="3.4821429"
       d="m 52.678571,53.267857 a 3.3035715,3.4821429 0 1 1 -6.607142,0 3.3035715,3.4821429 0 1 1 6.607142,0 z"
       transform="translate(32.232143,920.52289)" />
  </g>
</svg>
