<?xml version="1.0" encoding="UTF-8" standalone="no"?>
<!-- Created with Inkscape (http://www.inkscape.org/) -->

<svg
   xmlns:dc="http://purl.org/dc/elements/1.1/"
   xmlns:cc="http://creativecommons.org/ns#"
   xmlns:rdf="http://www.w3.org/1999/02/22-rdf-syntax-ns#"
   xmlns:svg="http://www.w3.org/2000/svg"
   xmlns="http://www.w3.org/2000/svg"
   xmlns:sodipodi="http://sodipodi.sourceforge.net/DTD/sodipodi-0.dtd"
   xmlns:inkscape="http://www.inkscape.org/namespaces/inkscape"
   width="128"
   height="128"
   id="svg2"
   version="1.1"
   inkscape:version="0.48.5 r10040"
   sodipodi:docname="New document 1">
  <defs
     id="defs4" />
  <sodipodi:namedview
     id="base"
     pagecolor="#ffffff"
     bordercolor="#666666"
     borderopacity="1.0"
     inkscape:pageopacity="0.0"
     inkscape:pageshadow="2"
     inkscape:zoom="5.6"
     inkscape:cx="46.429611"
     inkscape:cy="57.300602"
     inkscape:document-units="px"
     inkscape:current-layer="layer1"
     showgrid="false"
     inkscape:window-width="1600"
     inkscape:window-height="1200"
     inkscape:window-x="152"
     inkscape:window-y="0"
     inkscape:window-maximized="1" />
  <metadata
     id="metadata7">
    <rdf:RDF>
      <cc:Work
         rdf:about="">
        <dc:format>image/svg+xml</dc:format>
        <dc:type
           rdf:resource="http://purl.org/dc/dcmitype/StillImage" />
        <dc:title></dc:title>
      </cc:Work>
    </rdf:RDF>
  </metadata>
  <g
     inkscape:label="Layer 1"
     inkscape:groupmode="layer"
     id="layer1"
     transform="translate(0,-924.36218)">
    <path
       sodipodi:type="arc"
       style="fill:#ffff00"
       id="path2985"
       sodipodi:cx="68.303574"
       sodipodi:cy="64.964287"
       sodipodi:rx="45.089287"
       sodipodi:ry="48.57143"
       d="m 113.39286,64.964287 a 45.089287,48.57143 0 1 1 -90.178573,0 45.089287,48.57143 0 1 1 90.178573,0 z"
       transform="matrix(0.96339966,0,0,0.89433231,-1.5179172,930.33395)" />
    <path
       style="fill:none;stroke:#000000;stroke-width:1px;stroke-linecap:butt;stroke-linejoin:miter;stroke-opacity:1"
       d="m 36.25,76.035714 c -0.324689,0.510553 0.396431,0.614291 0.535714,0.892857 0.02662,0.05324 -0.02662,0.125332 0,0.178572 0.07529,0.150584 0.281851,0.206558 0.357143,0.357143 0.02662,0.05324 -0.04209,0.136481 0,0.178571 0.04209,0.04209 0.136482,-0.04209 0.178572,0 0.04209,0.04209 -0.02662,0.125332 0,0.178571 0.03765,0.07529 0.140925,0.10328 0.178571,0.178572 0.02662,0.05324 0,0.119048 0,0.178571 0.119048,0.238096 0.168912,0.526055 0.357143,0.714286 0.133099,0.133099 0.418127,0.03159 0.535714,0.178571 0.153315,0.191644 0.0523,0.503838 0.178572,0.714286 0.06848,0.114132 0.288663,0.06444 0.357143,0.178572 0.126269,0.210448 0.02526,0.522642 0.178571,0.714285 0.117587,0.146984 0.367355,0.09439 0.535714,0.178572 0.150585,0.07529 0.206558,0.28185 0.357143,0.357143 0.05324,0.02662 0.136482,-0.04209 0.178572,0 0.04209,0.04209 -0.04209,0.136481 0,0.178571 0.04209,0.04209 0.119047,0 0.178571,0 0.319871,0 1.212003,-0.04331 1.428571,0 0.08255,0.01651 0.09871,0.151952 0.178572,0.178571 0.112938,0.03765 0.239715,-0.01957 0.357143,0 0.242083,0.04035 0.473628,0.130441 0.714285,0.178572 0.198534,0.03971 0.50559,0 0.714286,0 0.143756,0 0.602205,-0.03736 0.714286,0 0.126269,0.04209 0.246397,0.104741 0.357143,0.178571 0.07004,0.04669 0.09871,0.151952 0.178571,0.178572 0.112939,0.03765 0.238095,0 0.357143,0 0.05952,0 0.125332,-0.02662 0.178571,0 0.07529,0.03765 0.119048,0.119047 0.178572,0.178571 0.119047,0 0.244204,-0.03765 0.357143,0 0.159719,0.05324 0.21706,0.263754 0.357143,0.357143 0.110745,0.07383 0.246397,0.104741 0.357142,0.178571 0.140083,0.09339 0.21706,0.263755 0.357143,0.357143 0.110746,0.07383 0.263028,0.08446 0.357143,0.178572 0.09412,0.09412 0.104741,0.246397 0.178572,0.357143 0.111406,0.167109 0.599921,0.599921 0.714285,0.714285 0.05952,0.05952 0.147308,0.100413 0.178572,0.178572 0.09115,0.227869 0.005,0.540745 0.178571,0.714285 0.17354,0.173541 0.494773,0.06882 0.714286,0.178572 0.05324,0.02662 -0.02662,0.125332 0,0.178571 0.03765,0.07529 0.119047,0.119048 0.178571,0.178572 0.05952,0.05952 0.10853,0.131877 0.178572,0.178571 0.110745,0.07383 0.246397,0.104741 0.357143,0.178572 0.140082,0.09339 0.200825,0.294616 0.357142,0.357142 0.22787,0.09115 0.486417,0.08742 0.714286,0.178572 0.07816,0.03126 0.100413,0.147308 0.178572,0.178571 0.227869,0.09115 0.481457,0.100962 0.714285,0.178572 0.126269,0.04209 0.230874,0.136482 0.357143,0.178571 0.465657,0.155219 0.972833,0.174847 1.428572,0.357143 0.07816,0.03126 0.09603,0.162063 0.178571,0.178571 0.153775,0.03076 1.198828,0 1.428571,0 0.119048,0 0.240407,-0.02335 0.357143,0 1.503514,0.300703 0.0055,0.0028 0.714286,0.357143 0.05324,0.02662 0.119048,0 0.178571,0 0.119048,0 0.244205,-0.03765 0.357143,0 0.159719,0.05324 0.206558,0.281851 0.357143,0.357143 0.05324,0.02662 0.136482,-0.04209 0.178572,0 0.04209,0.04209 -0.04209,0.136482 0,0.178572 0.03651,0.03651 0.464912,-0.0354 0.535714,0 0.07529,0.03765 0.103279,0.140925 0.178571,0.178571 0.05324,0.02662 0.122102,-0.01882 0.178572,0 0.126269,0.04209 0.230873,0.136482 0.357143,0.178571 0.173047,0.05768 0.719809,-0.05768 0.892857,0 0.126269,0.04209 0.226628,0.152469 0.357143,0.178572 0.291839,0.05837 0.595238,0 0.892857,0 0.47619,0 0.952381,0 1.428571,0 0.77381,0 1.549333,-0.05147 2.321429,0 0.302841,0.02019 0.5912,0.145054 0.892857,0.178571 0.236639,0.02629 0.47619,0 0.714286,0 0.535714,0 1.071428,0 1.607142,0 0.238096,0 0.478584,-0.03367 0.714286,0 0.186339,0.02662 0.351139,0.141657 0.535714,0.178572 0.116736,0.02335 0.238096,0 0.357143,0 0.238096,0 0.476191,0 0.714286,0 0.595238,0 1.190476,0 1.785714,0 0.476191,0 0.952381,0 1.428572,0 0.11734,0 0.434964,0.03358 0.535714,0 0.126269,-0.04209 0.226628,-0.152469 0.357143,-0.178572 0.175104,-0.03502 0.366306,0.05647 0.535714,0 0.05647,-0.01882 -0.04209,-0.136481 0,-0.178571 0.09412,-0.09412 0.263028,-0.08446 0.357143,-0.178572 0.09412,-0.09412 0.06444,-0.288663 0.178571,-0.357142 0.210449,-0.126269 0.540746,-0.005 0.714286,-0.178572 0.17354,-0.17354 -0.01307,-0.560971 0.178572,-0.714286 0.185921,-0.148736 0.488408,0.07529 0.714285,0 0.159719,-0.05324 0.227806,-0.249362 0.357143,-0.357142 0.228637,-0.190531 0.481884,-0.349794 0.714286,-0.535715 0.328665,-0.262932 0.5761,-0.615694 0.892857,-0.892857 0.223981,-0.195983 0.520598,-0.309745 0.714286,-0.535714 0.173239,-0.202113 0.168912,-0.526055 0.357143,-0.714286 0.245423,-0.245423 0.626222,-0.313519 0.892857,-0.535714 0.102249,-0.08521 0.06783,-0.283313 0.178571,-0.357143 0.26671,-0.177807 0.646607,-0.151935 0.892857,-0.357143 1.478845,-1.23237 -0.524122,-0.126775 0.357143,-0.714286 0.221683,-0.147788 0.660539,-0.299063 0.892857,-0.357142 0.05775,-0.01444 0.125332,0.02662 0.178572,0 0.150584,-0.07529 0.206558,-0.281851 0.357143,-0.357143 0.05324,-0.02662 0.136481,0.04209 0.178571,0 0.04209,-0.04209 -0.02662,-0.125332 0,-0.178572 0.03765,-0.07529 0.119048,-0.119047 0.178571,-0.178571 0.05952,-0.05952 0.106389,-0.135262 0.178572,-0.178572 0.228263,-0.136958 0.526055,-0.168912 0.714286,-0.357142 0.133099,-0.1331 0.04547,-0.402615 0.178571,-0.535715 0.186879,-0.186879 0.88455,-0.348835 1.071429,-0.535714 0.328731,-0.328731 0.535714,-0.773809 0.892857,-1.071429 2.559208,-2.132673 -0.219085,0.04866 1.428571,-0.892857 0.258406,-0.14766 0.481884,-0.349793 0.714286,-0.535714 0.06573,-0.05259 0.103279,-0.140925 0.178571,-0.178571 0.168359,-0.08418 0.374308,-0.08173 0.535715,-0.178572 0.216549,-0.12993 0.357142,-0.357143 0.535714,-0.535714 0.05952,-0.05952 0.119048,-0.119048 0.178571,-0.178572 0.05952,-0.05952 0.140926,-0.103279 0.178572,-0.178571 0.02662,-0.05324 -0.04209,-0.136482 0,-0.178571 0.04209,-0.04209 0.119047,0 0.178571,0 0.05952,0 0.119048,0 0.178572,0 0.941176,0 0.487395,0 1.428571,0 0.178571,0 0.366307,0.05647 0.535714,0 0.07986,-0.02662 0.103279,-0.140926 0.178572,-0.178572 0.0708,-0.0354 0.499208,0.03651 0.535714,0 0.04209,-0.04209 0,-0.119047 0,-0.178571"
       id="path3006"
       inkscape:connector-curvature="0"
       transform="translate(0,924.36218)" />
    <path
       style="fill:none;stroke:#000000;stroke-width:1px;stroke-linecap:butt;stroke-linejoin:miter;stroke-opacity:1"
       d="m 35.714286,53.178571 c 0.781629,-0.586222 0.503837,-0.325266 0.892857,-0.714285 0.05952,-0.05952 0.100413,-0.147308 0.178571,-0.178572 0.22787,-0.09115 0.486417,-0.08742 0.714286,-0.178571 0.07816,-0.03126 0.09871,-0.151952 0.178572,-0.178572 0.613609,-0.204536 1.187814,-0.117983 1.785714,-0.357143 0.07816,-0.03126 0.0969,-0.158155 0.178571,-0.178571 1.266558,0 0.104605,0.126269 0.714286,-0.178571 0.106479,-0.05324 0.250663,0.05324 0.357143,0 0.150584,-0.07529 0.220144,-0.259287 0.357143,-0.357143 0.34928,-0.249487 0.722148,-0.4648 1.071428,-0.714286 0.0685,-0.04893 0.100413,-0.147308 0.178572,-0.178571 0.227869,-0.09115 0.503837,-0.0523 0.714285,-0.178572 0.114132,-0.06848 0.06444,-0.288664 0.178572,-0.357143 0.413912,-0.248347 0.836088,-0.108795 1.25,-0.357143 0.144366,-0.08662 0.202397,-0.290823 0.357143,-0.357142 0.278972,-0.11956 0.659692,0.01573 0.892857,-0.178572 0.188539,-0.157116 -0.01,-0.55717 0.178571,-0.714286 0.233165,-0.194304 0.627539,-0.03117 0.892857,-0.178571 0.294344,-0.163525 0.455613,-0.498724 0.714286,-0.714286 0.10225,-0.08521 0.232518,-0.131837 0.357143,-0.178571 0.352492,-0.132185 0.734711,-0.188784 1.071429,-0.357143 0.05324,-0.02662 -0.04209,-0.136482 0,-0.178571 0.04209,-0.04209 0.119047,0 0.178571,0 0.05952,0 0.119048,0 0.178571,0 0.714286,0 1.428572,0 2.142858,0 0.297619,0 0.595238,0 0.892857,0 0.119047,0 0.238095,0 0.357143,0 0.05952,0 0.125331,-0.02662 0.178571,0 0.16345,0.08172 0.313643,0.405216 0.357143,0.535714 0.01882,0.05647 0,0.119047 0,0.178571 0,0.357143 0,0.714286 0,1.071429 0,0.178571 -0.04331,0.362474 0,0.535714 0.0063,0.02507 0.322571,0.305286 0.357143,0.357143 0.432435,0.648653 -0.05229,0.126279 0.357143,0.535714 0.416474,0.416475 0.574167,0.287084 1.071428,0.535715 0.07529,0.03765 0.100413,0.147308 0.178572,0.178571 0.227869,0.09115 0.503837,0.0523 0.714285,0.178571 0.114132,0.06848 0.119048,0.238096 0.178572,0.357143 0.357143,0.178572 0.68897,0.420977 1.071428,0.535715 0.228054,0.06842 0.49322,-0.08843 0.714286,0 0.555399,-0.05306 0.02195,0.431302 0.178571,0.535714 0.332236,0.22149 0.724741,0.337607 1.071429,0.535714 0.07309,0.04176 0.103279,0.140925 0.178571,0.178572 0.05324,0.02662 0.136482,-0.04209 0.178572,0 0.04209,0.04209 -0.04209,0.136481 0,0.178571 0.04209,0.04209 0.119047,0 0.178571,0 0.119048,0 0.238096,0 0.357143,0 0.141441,0 1.476425,-0.02614 1.607143,0 0.08254,0.01651 0.09554,0.164732 0.178571,0.178571 0.29357,0.04893 0.595239,0 0.892858,0 0.05952,0 0.120203,-0.01167 0.178571,0 0.240657,0.04813 0.473629,0.13044 0.714286,0.178572 0.116736,0.02335 0.238095,0 0.357143,0 0.178571,0 0.357142,0 0.535714,0"
       id="path3008"
       inkscape:connector-curvature="0"
       transform="translate(0,924.36218)" />
    <path
       style="fill:none;stroke:#000000;stroke-width:1px;stroke-linecap:butt;stroke-linejoin:miter;stroke-opacity:1"
       d="m 42.678572,50.321428 c 0.178571,0.238096 0.773809,0.535715 0.535714,0.714286 -0.238095,0.178572 -0.827554,-0.772653 -0.535714,-0.714286 0.47619,0.297619 0.95238,0.595239 1.428571,0.892858 0,0.05952 -0.04209,0.136481 0,0.178571 0.04209,0.04209 0.125332,-0.02662 0.178571,0 0.07529,0.03765 0.103279,0.140925 0.178572,0.178571 0.05324,0.02662 0.125332,-0.02662 0.178571,0 0.07529,0.03765 0.103279,0.140926 0.178572,0.178572 0.106479,0.05324 0.250663,-0.05324 0.357143,0 0.743171,0.371586 -0.1909,-0.01233 0.178571,0.357143 0.04209,0.04209 0.119048,0 0.178571,0 0.124204,0 0.82828,-0.03229 0.892858,0 0.150584,0.07529 0.206558,0.28185 0.357142,0.357143 0.05324,0.02662 0.119048,0 0.178572,0 0.05952,0 0.119047,0 0.178571,0 0.203898,0 0.969675,-0.0407 1.071429,0 0.238095,0.119047 0.47619,0.238095 0.714286,0.357142 0.05952,0.178572 0.02195,0.431303 0.178571,0.535715 0.252538,0.168358 0.659692,-0.01573 0.892857,0.178571 0.188539,0.157116 0.005,0.540746 0.178572,0.714286 1.362157,1.362157 0.325736,-0.104989 0.892857,0.178571 0.150584,0.07529 0.206558,0.281851 0.357143,0.357143 0.05324,0.02662 0.119047,0 0.178571,0 0.119048,0 0.238095,0 0.357143,0 0.595238,0 1.190476,0 1.785714,0 0.833333,0 1.666667,0 2.5,0 0.124204,0 0.82828,0.03229 0.892857,0 0.07529,-0.03765 0.09603,-0.162062 0.178572,-0.178571 0.233471,-0.04669 0.480814,0.04669 0.714285,0 0.08255,-0.01651 0.09871,-0.151952 0.178572,-0.178572 0.287938,-0.09598 0.613884,-0.05901 0.892857,-0.178571 0.154746,-0.06632 0.212776,-0.270523 0.357143,-0.357143 0.293918,-0.176351 0.885531,-0.163918 1.071428,-0.535714 0.02662,-0.05324 -0.02662,-0.125332 0,-0.178572 0.03765,-0.07529 0.140926,-0.103279 0.178572,-0.178571 0.02309,-0.04617 0,-0.944857 0,-1.071429"
       id="path3010"
       inkscape:connector-curvature="0"
       transform="translate(0,924.36218)" />
    <path
       style="fill:none;stroke:#000000;stroke-width:1px;stroke-linecap:butt;stroke-linejoin:miter;stroke-opacity:1"
       d="M 72.678572,53.892857 C 73.592821,54.053431 72.917094,53.237241 73.035714,53 c 0.03765,-0.07529 0.10328,-0.140925 0.178572,-0.178572 0.106479,-0.05324 0.250663,0.05324 0.357143,0 0.07529,-0.03765 0.119047,-0.119047 0.178571,-0.178571 0.178572,0 0.364014,0.04906 0.535714,0 0.255957,-0.07313 0.459314,-0.280651 0.714286,-0.357143 0.659158,-0.197747 1.305128,-0.159395 1.964286,-0.357143 0.307027,-0.09211 0.599939,-0.226957 0.892857,-0.357143 0.778797,-0.346132 1.530133,-0.75491 2.321429,-1.071428 0.402346,-0.160939 0.862409,-0.163348 1.25,-0.357143 0.3409,-0.17045 0.57573,-0.502868 0.892857,-0.714286 1.582295,-1.054863 -0.14185,0.249496 1.428571,-0.535714 0.150585,-0.07529 0.206558,-0.281851 0.357143,-0.357143 0.70445,-0.352225 0.581019,-0.09684 1.071429,-0.178571 0.299383,-0.0499 0.611052,-0.06585 0.892857,-0.178572 0.322256,-0.128902 0.570601,-0.406812 0.892857,-0.535714 0.281805,-0.112722 0.616549,-0.05298 0.892857,-0.178571 0.390759,-0.177618 0.703365,-0.493448 1.071429,-0.714286 0.228263,-0.136958 0.526055,-0.168912 0.714285,-0.357143 0.1331,-0.133099 0.07416,-0.379097 0.178572,-0.535714 0.03302,-0.04953 0.120203,0.01167 0.178571,0 0.240657,-0.04813 0.468863,-0.178572 0.714286,-0.178572 0.119048,0 -0.08418,0.272964 0,0.357143 0.04209,0.04209 0.120203,-0.01167 0.178571,0 0.240657,0.04813 0.501199,0.05681 0.714286,0.178572 0.219265,0.125294 0.338515,0.377955 0.535714,0.535714 1.089883,0.871906 -0.765934,-1.180632 0.892857,0.892857 0.197462,0.246827 0.788488,0.63079 0.892858,0.714286 0.06573,0.05259 0.147308,0.100413 0.178571,0.178571 0.09115,0.22787 0.005,0.540746 0.178571,0.714286 0.173541,0.17354 0.522643,0.02526 0.714286,0.178571 0.146984,0.117587 0.02799,0.422776 0.178572,0.535715 0.142857,0.107142 0.409445,-0.12627 0.535714,0 0.17354,0.17354 0.08742,0.486416 0.178571,0.714285 0.06253,0.156317 0.270523,0.212777 0.357143,0.357143 0.136958,0.228264 0.220185,0.486022 0.357143,0.714286 0.04331,0.07218 0.140925,0.103279 0.178571,0.178571 0.02662,0.05324 -0.03302,0.129045 0,0.178572 0.09339,0.140083 0.238096,0.238095 0.357143,0.357143 0.178572,0.05952 0.418128,0.03159 0.535715,0.178571 0.153314,0.191643 0.005,0.540745 0.178571,0.714286 0.17354,0.17354 0.510082,0.04243 0.714286,0.178571 0.178571,0.119048 0.178571,0.416667 0.357143,0.535714 0.204204,0.136137 0.494772,0.06882 0.714285,0.178572 0.05324,0.02662 -0.05324,0.151951 0,0.178571 0.04199,0.021 0.596983,0 0.714283,0"
       id="path3012"
       inkscape:connector-curvature="0"
       transform="translate(0,924.36218)" />
    <path
       style="fill:none;stroke:#000000;stroke-width:1px;stroke-linecap:butt;stroke-linejoin:miter;stroke-opacity:1"
       d="m 95.535714,51.928571 c -0.297619,0 -0.601017,-0.05837 -0.892857,0 -0.05837,0.01167 0.03302,0.129045 0,0.178572 -0.09339,0.140083 -0.197423,0.303903 -0.357143,0.357143 -0.225876,0.07529 -0.480814,-0.04669 -0.714285,0 -0.08254,0.01651 -0.10853,0.131877 -0.178572,0.178571 -0.110745,0.07383 -0.230873,0.136482 -0.357143,0.178571 -0.221682,0.0739 -0.194561,-0.146591 -0.357142,0.178572 -0.05324,0.106479 0.05324,0.250663 0,0.357143 -0.03765,0.07529 -0.103279,0.140925 -0.178572,0.178571 -0.05324,0.02662 -0.151951,-0.05324 -0.178571,0 -0.109757,0.219513 0.01,0.55717 -0.178572,0.714286 -0.233165,0.194304 -0.640319,0.01021 -0.892857,0.178571 -0.317126,0.211418 -0.391081,0.690854 -0.714286,0.892857 -0.201904,0.126191 -0.48186,-0.05165 -0.714285,0 -0.312913,0.06954 -0.592721,0.244592 -0.892857,0.357143 -0.176246,0.06609 -0.367356,0.09439 -0.535715,0.178572 -0.07529,0.03765 -0.103279,0.140925 -0.178571,0.178571 -0.05324,0.02662 -0.119048,0 -0.178572,0 -0.119047,0 -0.250663,0.05324 -0.357142,0 -0.05324,-0.02662 0,-0.119047 0,-0.178571 -0.119048,-0.05952 -0.225072,-0.162063 -0.357143,-0.178572 -0.354385,-0.0443 -0.714286,0 -1.071429,0 -0.654762,0 -1.309524,0 -1.964286,0 -0.892857,0 -1.785714,0 -2.678571,0 -0.05952,0 -0.119048,0 -0.178571,0 -0.05952,0 -0.151952,0.05324 -0.178572,0 -0.07986,-0.159719 0,-0.357143 0,-0.535714 0,-0.535714 0,-1.071429 0,-1.607143 0,-0.245021 0.09375,-0.578127 -0.178571,-0.714286 -0.05324,-0.02662 -0.120204,0.01167 -0.178572,0 -0.240657,-0.04813 -0.481457,-0.100961 -0.714285,-0.178571 -0.249278,-0.08309 -0.72985,-0.413458 -0.892858,-0.535714 -0.06734,-0.05051 -0.09871,-0.151952 -0.178571,-0.178572 -0.330617,-0.110205 -0.714286,0.245759 -0.714286,-0.357143"
       id="path3014"
       inkscape:connector-curvature="0"
       transform="translate(0,924.36218)" />
    <path
       sodipodi:type="star"
       style="fill:#ffff00"
       id="path3030"
       sodipodi:sides="5"
       sodipodi:cx="29.821428"
       sodipodi:cy="30.142857"
       sodipodi:r1="15.824492"
       sodipodi:r2="7.6832418"
       sodipodi:arg1="-2.4280705"
       sodipodi:arg2="-1.7997519"
       inkscape:flatsided="false"
       inkscape:rounded="0"
       inkscape:randomized="0"
       d="m 17.857142,19.785714 10.220494,2.874403 7.896853,-7.096506 0.424586,10.608507 9.18944,5.317412 -9.958085,3.682015 -2.217466,10.382847 -6.579022,-8.332896 -10.55991,1.09954 5.892026,-8.832028 z"
       transform="translate(4.8214285,923.82646)"
       inkscape:transform-center-x="-1.239585"
       inkscape:transform-center-y="0.23757369" />
    <path
       sodipodi:type="arc"
       style="fill:#c83737"
       id="path3034"
       sodipodi:cx="54.642857"
       sodipodi:cy="52.55357"
       sodipodi:rx="2.6785715"
       sodipodi:ry="2.4107144"
       d="m 57.321428,52.55357 a 2.6785715,2.4107144 0 1 1 -5.357143,0 2.6785715,2.4107144 0 1 1 5.357143,0 z"
       transform="translate(-4.2857143,921.86218)" />
    <path
       sodipodi:type="arc"
       style="fill:#c83737"
       id="path3034-3"
       sodipodi:cx="54.642857"
       sodipodi:cy="52.55357"
       sodipodi:rx="2.6785715"
       sodipodi:ry="2.4107144"
       d="m 57.321428,52.55357 a 2.6785715,2.4107144 0 1 1 -5.357143,0 2.6785715,2.4107144 0 1 1 5.357143,0 z"
       transform="translate(33.392858,922.84433)" />
  </g>
</svg>
